<svg width="27" height="24" viewBox="0 0 27 24" fill="none" xmlns="http://www.w3.org/2000/svg">
<path d="M19.7324 1C23.0079 1.00001 25.6641 3.65619 25.6641 6.93164V7.06738C25.6639 9.62113 24.0417 12.5448 21.7734 15.2998C19.5397 18.0127 16.8311 20.3815 14.9727 21.7998C14.5143 22.1472 13.9388 22.331 13.332 22.3311C12.7186 22.3311 12.1432 22.1493 11.6982 21.8057L11.6943 21.8018L10.96 21.2266C9.16547 19.7859 6.84516 17.6749 4.88965 15.2998C2.62143 12.5449 1.00016 9.6211 1 7.06738V6.93164C1 3.65618 3.65618 1 6.93164 1C8.83515 1.00001 10.6268 1.91413 11.7402 3.45508L11.7412 3.45605L12.5225 4.53418L13.332 5.65137L14.1416 4.53418L14.9229 3.45605L14.9238 3.45508C16.0373 1.91414 17.8289 1 19.7324 1Z" fill="white" stroke="black" stroke-width="2"/>
</svg>
